<?xml version="1.0" encoding="UTF-8"?>
<svg id="Layer_1" xmlns="http://www.w3.org/2000/svg" version="1.1" viewBox="0 0 512 221">
  <!-- Generator: Adobe Illustrator 29.0.0, SVG Export Plug-In . SVG Version: 2.1.0 Build 186)  -->
  <defs>
    <style>
      .st0 {
        fill: none;
        fill-rule: evenodd;
      }
    </style>
  </defs>
  <path class="st0" d="M248,33.5c1.22.26,4.52,1.18,7,1.5,2.84.36,5.85.37,9,0,1.83-.22,4.48-.82,7-1.5,2.86-.77,6-1.76,7.5-2.5,1.78-.88,3.85-2.33,6.19-3.29,1.6-.66,3.5-1.22,5.64-1.68,1.9-.41,3.34-.28,5.24-.69.79-.17,2.15-.5,3.43.16.82.43,1.21,1.2,2,2,.72.73,1.46,1.25,2,1.5.64.29,1.33.47,2,.5.98.05,2.06-.22,3.5-1,.82-.44,2.16-1.67,3.5-2,1.72-.43,3.17.16,4.15.52,2.24.83,4.12,1.11,6.35,1.98,1.35.53,2.56,1.1,3.94,1.58,1.8.63,3.55,1.14,5.06,1.42,2.12.39,6.55.35,11-.5,2.86-.54,5.1-1.28,8-1.5,1.81-.14,3.53-.09,5,0,5.12.33,13.59.54,20.59.98,4.14.26,7.94.51,11.08,1.29,1.07.27,1.87.48,2.97.59,3.63.37,5.74-1.23,8.86-.35,2.21.62,3.07,2.42,5.68,2.63,1.03.08,3.47.02,5.32-1.63.77-.69,1.01-1.3,1.9-1.63.94-.35,2.48-.2,4.6,1.13,1.07.68,1.58,1.42,2.5,1.5,1.63.14,3.37-1.97,4.5-2.5.79-.37,2.85-.76,5.22-.43,1.94.27,3.28,1.32,5.54,1.29,2.03-.03,3.49-.81,4.55-1.38,3.53-1.92,6.28-3.45,9.19-3.97,1.01-.18,3.12-.19,5.05-.08,3.16.18,6.71.92,10.49.89,1.15,0,2.32-.07,3.17-.2,4.27-.65,6.94-2.63,9.69-4.45,1.46-.97,7.26-4.73,12.96-4.75,2.06,0,3.17.5,3.76,1.29.76,1.01.61,2.44.39,3.3-.4,1.59-1.52,2.49-2,3.5-.87,1.85-.54,3.61-.37,4.87.99,7.26.3,13.28-1.13,16.13-1.82,3.62-5.46,4.72-6.5,9-1.04,4.29,1.66,6.24,1,10.5-.68,4.33-4.32,6.63-7.5,11.5-2.92,4.48-3.83,8.6-3.5,10,.88,3.76,4.36,4.66,5.5,9,.47,1.78.65,4.18-.5,6-1.2,1.91-3.15,2-5.5,3.5-2.61,1.66-4.19,3.55-5,5.5-.83,2.01-.68,3.95-1,6.5-.08.66-.31,1.97-.5,3-1.97,10.69-6.93,18.29-9,27-.14.57-.33,1.33-.5,2-1.04,4.21-1.67,7.19-3.5,9-1.03,1.03-3.52,1.86-4.31,3.77-1.11,2.7.78,5.88,1.58,7.02,1.58,2.24,3.21,2.55,4.75,4.85,1.48,2.21,1.78,3.95,1.58,5.14-.56,3.31-4.61,4.98-9,6.82-5.8,2.44-10.34,4.98-13.55,4.65-6.53-.67-9.38-6.03-16.55-10.75-9.63-6.34-16.51-7.63-21.43-5.47-4.75,2.08-5.17,6.39-10.58,9.79-1.85,1.16-3.12,1.65-4.45,3.36-2.35,3.03-1.53,6.18-4.06,8.9-.67.72-3.22,2.15-6.33,2.87-2.72.63-8.29,1.55-9.6-.69-1.22-2.09,2.25-5.16.99-7.61-1.22-2.38-5.3-1.31-6.63-3.66-1.54-2.73,2.47-6.7,1.19-10.68-.38-1.17-.95-1.89-1.6-2.3-1.04-.68-2.14-.51-3-.5-2.57.04-3.56-1.48-6-2-3.15-.66-6.98-.24-10.07,1.64-3.07,1.87-5.18,5.19-6.33,9.2-1.19,4.13-.61,7.41-3.1,10.17-.65.72-1.54,1.41-2.74,1.8-.62.2-2.76.77-3.76-.3-.54-.58-.52-1.39-.5-2,.04-1.06.02-3.03,0-4-.04-1.92-.52-3.15-1-3.5-.83-.61-2.27-.33-3-.5-.49-.11-1.83-.91-3-2-.95-.88-1.77-2.42-3-3-1.48-.69-3.38-.38-6.22.15-.88.16-1.8.32-2.57-.2-1.37-.91-.96-3.17-2.18-4.65-.37-.45-1.38-1.22-2.77-1.68-1.65-.55-3.55-.45-6.43.49-1.79.59-3.02,1.36-4.84,1.89-2.57.74-5.15.61-6.5.5-2.4-.19-6.52-.24-9.93-.41-2.99-.15-6.52-.29-8.07-.09-3.64.47-6.5,1.54-9.5,0-1.26-.65-2.24-1.86-4-2.5-.77-.28-2.36-.51-4-.5-2.65.01-5.2.58-6,1-1.37.72-2.79,1.94-4,4-1.66,2.82-1.78,7.15-2,8-1.31,5.04-5.36,9.99-10.5,11.5-2.11.62-5.53,1.12-8-.5-3.15-2.06-3.37-6.99-5.5-10-1.3-1.83-2.73-2.54-4.31-4.19-3.35-3.49-4.94-6.06-8.69-7.31-2.64-.88-4.39-.6-5.5,0-1.56.84-2.29,2.41-3,4.5-1.38,4.09-1.79,7.01-4,9.5-.79.89-1.62,1.54-2.5,2-1.55.82-2.87.9-4.5,1-2.99.18-4.94.42-6-.5-1.13-.98-1.24-2.74-1.82-3.75-1.22-2.11-3.82-3.99-6.23-3.86-2.7.15-3.86,2.88-6.83,3.76-1.21.36-3.91.87-5.74-.59-1.35-1.08-1.82-2.96-1.89-4.56-.08-1.91.56-3.03.5-5-.04-1.31-.31-2.27-1-3-.49-.51-1.19-.91-2-1-.66-.07-1.48,0-2,.5-.52.5-.63,1.28-.5,2.5.1.94.4,2.15.5,2.5.48,1.63.61,3.17.5,4-.13,1-.51,2.73-1.5,3-1.45.39-3.42-2.55-4-3.5-.76-1.24-1.21-3.05-2.5-4.5-1.01-1.12-2.42-1.99-4-2.5-1.98-.64-6.3-.56-11.5,2.5-2.2,1.29-6.1,4.74-9.5,8.5-.67.74-1.32,1.27-2,2-1.02,1.09-2.1,2.34-4,3-1.71.59-2.89.36-3.5,0-.3-.18-.66-.51-1-1-.65-.94-.94-2.17-1-2.5-.21-1.23-.44-2.78-.5-3.5-.15-1.87-.36-3.38,0-4.5.47-1.44,1.36-2.22,2-3.5.46-.93.81-1.91,1-3,.38-2.12-.06-3.55-.5-4-1.21-1.23-3.31-.72-4-.5-1.98.64-3.05,2.27-3.5,3-2.21,3.57-5.7,10.21-8.5,16-.35.72-1.42,2.75-3.5,4-1.16.7-2.35,1.02-3.5,1-1.61-.03-2.57-.52-3-1-.68-.76-.56-1.71-1-2.5-.38-.68-1.11-1.4-2.5-2-2.02-.87-3.95-.35-5.5,0-1.7.38-4.9.61-8,.5-1.57-.06-3.33-.28-4-1.5-.49-.88-.21-1.96,0-2.5.23-.6,1-1.68,2.5-2.5,1.14-.62,2-.68,2.5-1.5.45-.73.48-1.8,0-2.5-.45-.66-1.23-.84-2.5-1-1.31-.17-2.35-.23-3.46-.61-1.62-.56-2.39-1.3-2.54-1.89-.26-1.04.85-2.08,2-4,.71-1.18,1.18-2.27,1-3.5-.11-.78-.42-1.55-1-2-.72-.56-1.94-.49-2.52-.68-1.18-.37-1.83-.97-1.98-1.32-.45-1.13,1.01-3.07,1.28-4.41.32-1.57.04-2.68-.28-3.09-.58-.76-1.46-.69-2-1.5-.37-.55-.5-1.5,0-3,.25-.74.95-1.88,2-3,.71-.76,1.19-1.16,1.5-2,.46-1.26.16-2.42,0-3-.45-1.61-1.2-3.44-1.5-4.5-.52-1.82-.51-4.74,1-8.5.7-1.74,1.69-2.98,2.5-4.5.86-1.61,1.61-3.27,2-4.5.58-1.81.82-3.55,1-5,.31-2.44,1-4.51,1.5-7,.56-2.81.75-5.25,1.5-8,.71-2.63,1.51-4.82,2-7.5.18-1,.33-2.3.5-3.5.69-4.84,1.87-10.4,2-14.5.01-.35.01-.7,0-1-.08-1.9-.79-3.75-1-5-.25-1.49-.16-2.98,0-3.5.48-1.53,1.44-2.11,2.5-3.5.83-1.1,1.48-2.36,1.9-3.68.42-1.35.39-2.42.6-3.82.25-1.61.69-2.9,1-4.5.19-.98.45-2.64,0-4.5-.24-1.02-.79-2.12-1-2.5-.97-1.77-1.11-3.19-2-5-1.1-2.24-2.09-3.62-1.5-5,.58-1.35,2.43-2.13,4-2,1.96.16,3.06,1.73,4.5,3,.91.8,4.07,2.18,7.16,3.26,4.53,1.58,7.79,1.24,12.34,2.74,5.63,1.86,7.27,4.99,13,6.5,4.86,1.28,8.52-.39,13.5,2,4.79,2.29,5.63,5.69,10,8.5,3.79,2.44,6.61,2.01,10.5,4,3.78,1.94,10.69,9.88,16.5,20.5,2.83,5.17,8.3,10.57,12.49,13.5,1.25.88,2.61,1.4,4.01,1.5,1.36.1,2.36-.17,3-.5,1.58-.8,2-2.17,3-3.5.54-.72,2.63-2.25,4.93-3.43,1.75-.9,3.37-1.41,4.95-1.88,3.06-.91,4.79-2.25,7.91-2.87,1.06-.21,3.19-.55,4.65-2.27,1.2-1.43,1.54-3.31,1.56-4.55,0-.46-.2-1.57,0-2.5.23-1.04.94-2.62,2.5-3.5,1.3-.74,2.12-.33,3.5-1,1.08-.53,2.19-1.36,2.5-2.5.41-1.49-.72-2.52-.5-4,.14-.96.96-2.26,3-3.5,1.75-1.06,4.37-.93,5.5-2.5.7-.97.49-2.4.5-4.5.01-2.19.26-3.66.92-4.38,1.11-1.2,3.02-1.09,4.55-1.98.36-.21.99-.7,1.53-1.14,1.35-1.12,2.27-2.35,2.5-3,.37-1.06.24-1.99,0-3.5-.27-1.76-.42-2.91,0-4,.48-1.25,1.41-1.88,3-3,1.51-1.06,2.79-2.08,4-2.5,1.17-.41,2.89-.68,5-.5,1.72.15,2.98.56,4.5,1,1.61.46,3.24.63,5,1Z"/>
</svg>