<?xml version="1.0" encoding="UTF-8"?>
<svg id="Layer_1" data-name="Layer 1" xmlns="http://www.w3.org/2000/svg" viewBox="0 0 1599.39 143.24">
  <defs>
    <style>
      .cls-1 {
        fill: none;
        stroke: #fff;
        stroke-miterlimit: 10;
      }
    </style>
  </defs>
  <path class="cls-1" d="m.03,36.67c9.79.67,24.34.7,41.19-3.26,23.61-5.55,26.93-13.11,44.74-14.22,22-1.38,24.81,9.66,47.7,8.3,19.94-1.19,19.45-9.65,40.89-11.56,17.61-1.56,32.21,2.88,50.96,8.59,16.22,4.94,24.33,7.41,31.11,11.56,7.47,4.57,16.24,6.61,24,10.67.85.45,2.21,1.16,3.85.89,5.6-.94,5.08-11.82,11.26-21.04,5.06-7.55,14.55-13.88,24-14.22,10.26-.37,19.18,6.36,26.07,11.56,5.99,4.52,10.31,6.96,18.96,11.85,1.48.84,3.57,1.98,6.22,1.78,5.35-.41,8.7-6,10.96-9.19,6.05-8.51,17.01-17.71,27.26-19.85,6.17-1.29,13.99,1.12,29.63,5.93,4.97,1.53,8.64,2.66,13.63,4.74,7.61,3.18,14.66,7.06,21.63,8.89,3.99,1.05,8,1.48,8,1.48,2.29.25,4.01.28,4.44.3,45.51,1.19,77.04,6.22,77.04,6.22,4.88.78,17.87,2.97,34.07,2.07,2.66-.15,4.27-.24,6.52-.59,12.27-1.92,18.53-7.62,28.74-13.93,9.61-5.93,21.54-13.14,37.04-14.81,6.98-.76,11.75-1.27,17.48.89,8.22,3.1,9.05,8.18,24.59,19.56,3.21,2.35,7.36,5.19,13.33,6.52,4.52,1,8.13.7,9.48.59,20.58-1.63,27.61,1.5,54.81-2.37,7.09-1.01,41.11-5.85,55.41-13.93.81-.46,2.88-1.67,5.93-2.37,8.69-1.99,16.75,2.18,20.44,4.15,7.35,3.92,6.34,6,11.56,7.7,6.82,2.23,13.28.22,17.78-1.19,10.13-3.16,9.53-6.77,17.48-8.59,10.89-2.5,20.47,2.35,21.63,2.96,6.14,3.22,6.06,5.97,10.96,8,7.83,3.25,15.99-.45,22.22-2.96,0,0,27.34-11,58.07-13.04,9.87-.65,17.43-1.08,26.67,2.07,12.98,4.43,12.84,10.33,24.3,13.93,17.62,5.53,35.83-2.79,38.81-4.15,7.96-3.63,9.71-6.63,18.67-9.48,9.44-3,17.25-2.78,21.33-2.67,70.93,1.95,106.4,2.93,107.85,2.67.94-.17,3.93-.75,7.41.3,6.27,1.88,10.9,8.05,12.74,13.93,1.18,3.78.19,4.18,1.19,6.52,2.2,5.16,9,7.86,22.81,9.78,10.63,1.48,16.4,1.24,35.85,1.19,21.05-.05,26.95.19,31.7-4.74.48-.5,5.19-5.53,5.33-12.44.14-7.11-4.68-9.83-5.33-19.56-.28-4.1-.49-7.3,1.48-9.48,3.93-4.34,13.27-.96,24,1.48.7.16,12.12,1.39,34.96,3.85,40.23,4.33,40.75.38,49.78,5.63,5.85,3.4,19.52,11.36,26.96,22.52.98,1.47,3.46,5.41,8.3,8,5.33,2.86,10.63,2.52,13.33,2.37,17.25-.99,25.87-1.48,30.52-.59,16.11,3.07,29.92,27.11,29.04,48.89-.64,15.71-9.02,32.57-21.04,38.81-2.7,1.4-5.58,2.27-5.93,2.37-9.72,2.88-12.82-1.73-26.07-1.78-.96,0-8.58,0-17.48-.89-1.97-.2-4.17-.45-5.33-2.07-1.7-2.36.7-4.95-.3-10.07-.25-1.28-.86-4.21-3.26-6.52-2.22-2.13-4.84-2.65-6.52-2.96-4.04-.75-7.23.09-11.26,1.19-7.56,2.06-11.34,3.09-13.93,3.85-5.87,1.72-10.63,2.24-20.15,3.26-7.11.76-6.86.36-25.48,1.19-14.8.65-19.5,1.11-26.37-.89-3.89-1.13-7.99-2.37-11.56-5.93-2.46-2.45-2.83-4.17-5.93-6.81-3.51-3-7.07-4.23-8.59-4.74-7.26-2.43-13.59-1.1-17.19-.3-5.71,1.28-9.67,3.56-10.67,4.15-5.4,3.2-5.5,5.27-12.15,10.37-4.8,3.68-7.23,5.54-10.96,6.52-6.47,1.7-12.23-.45-16.59-2.07-9.43-3.51-9.71-7.28-18.37-9.48-5.68-1.44-10.5-1.08-12.74-.89-3.14.26-8.16.73-13.63,3.56-4.08,2.11-6.93,4.76-9.78,7.41-4.54,4.23-4.62,5.51-7.11,6.81-4.84,2.53-10.47.75-13.63-.3-13.39-4.43-20.08-6.65-43.56-15.41-12.73-4.75-10.83-3.1-26.67-8.89-6.31-2.3-11.29-4.28-18.96-5.63-9.21-1.63-14.96-1.07-16.59-.89-4.14.46-7.46,1.5-13.93,3.56-5.78,1.84-11.71,3.73-19.26,7.11-11.27,5.05-11.26,6.78-20.74,10.37-1.71.65-7.64,2.84-15.7,4.44-7.21,1.43-11.41,2.27-16.89,1.48-3.73-.54-5.64-1.47-13.93-5.04,0,0-8.67-3.73-18.37-7.7-3.18-1.3-12.79-5.19-25.19-9.19-9.21-2.97-13.82-4.46-18.07-5.04-4.43-.6-15.05-1.94-26.07,2.07-8.59,3.12-7.72,5.96-17.78,11.85-16.15,9.46-33.65,11.09-48.3,12.44-4.08.38-3.32.16-8,.59-14.78,1.36-22.7,3.59-37.33,6.52-14.07,2.81-21.1,4.22-30.52,5.04-9.7.85-10.92.17-28.44.3-30.83.23-33.03,2.39-48.3.59-4.21-.49-12.09-2.21-27.85-5.63-20.86-4.53-31.29-6.8-37.04-8.89-2.5-.91-10.56-3.27-26.67-8-2.38-.7-6.67-1.91-11.85-.89-3.75.74-5.19,2.1-10.07,4.74-7.4,4.01-12.9,6.99-19.85,7.41-6.63.4-11.97-1.7-13.63-2.37-6.4-2.59-6.93-5.26-12.74-7.41-5.29-1.96-9.83-1.59-14.81-1.19-6.36.52-11.14,2.13-20.44,5.33-9.58,3.3-10.35,4.35-14.81,4.74-6.85.61-12.31-1.21-14.81-2.07-9.03-3.11-8.41-6.49-17.48-9.78-3.93-1.42-10.6-3.84-17.78-1.78-2.63.76-3.33,1.54-8.3,3.26-5.16,1.79-9.08,2.56-10.96,2.96-3.49.74-4.59,1.16-32,9.78-18.05,5.67-19.52,6.1-22.52,6.81-5.27,1.25-12.92,3.04-22.52,3.85-3.85.32-9.67.63-29.33-.89-19.96-1.54-19.9-2.32-32-2.96-9.03-.48-16.88-.32-32.59,0-12.55.26-22.86.47-36.15,1.48-13.71,1.05-18.36,2.01-32.3,3.56-11.1,1.23-27.28,2.73-47.41,3.56"/>
</svg>